<svg width="33" height="33" viewBox="0 0 33 33" fill="none" xmlns="http://www.w3.org/2000/svg">
<path d="M31.1981 0.48291H1.73902C1.03056 0.48291 0.458191 1.05528 0.458191 1.76374V31.2229C0.458191 31.9313 1.03056 32.5037 1.73902 32.5037H31.1981C31.9066 32.5037 32.479 31.9313 32.479 31.2229V1.76374C32.479 1.05528 31.9066 0.48291 31.1981 0.48291ZM9.95635 27.7686H5.20527V12.4867H9.95635V27.7686ZM7.58281 10.3973C7.03817 10.3973 6.50575 10.2358 6.05289 9.93325C5.60003 9.63066 5.24707 9.20057 5.03865 8.69738C4.83022 8.1942 4.77568 7.6405 4.88194 7.10632C4.9882 6.57214 5.25047 6.08146 5.63559 5.69634C6.02072 5.31121 6.51139 5.04894 7.04558 4.94268C7.57976 4.83643 8.13345 4.89096 8.63664 5.09939C9.13983 5.30782 9.56991 5.66078 9.8725 6.11363C10.1751 6.56649 10.3366 7.09891 10.3366 7.64356C10.3326 9.16454 9.0998 10.3973 7.58281 10.3973ZM27.7439 27.7686H22.9968V20.3358C22.9968 18.5626 22.9648 16.2852 20.5272 16.2852C18.0576 16.2852 17.6774 18.2144 17.6774 20.2077V27.7686H12.9343V12.4867H17.4892V14.5761H17.5533C18.1857 13.3753 19.7347 12.1065 22.0482 12.1065C26.8593 12.1065 27.7439 15.2725 27.7439 19.3872V27.7686Z" fill="#FA4A0C"/>
</svg>
